<svg width="600" height="555" viewBox="0 0 600 555" fill="none" xmlns="http://www.w3.org/2000/svg">
<path d="M450.629 48.5586C498.448 73.9216 547.37 97.2557 570.912 134.455C594.454 171.316 592.247 222.042 595.557 274.459C599.236 327.214 608.064 381.66 581.947 414.463C555.831 447.266 494.769 458.764 443.64 483.113C392.142 507.461 350.944 544.998 304.597 553.115C258.249 561.231 206.752 540.264 159.668 513.548C112.585 486.832 69.9157 454.706 40.4886 413.787C11.0615 372.53 -5.8591 322.818 1.86552 276.826C9.59013 231.173 41.5921 189.239 76.5368 156.774C111.849 124.648 150.105 101.652 189.095 71.8926C228.454 42.1332 269.284 5.27226 312.689 0.537817C356.094 -4.19662 402.81 23.1955 450.629 48.5586Z" fill="#A7F0BA"/>
</svg>
